<?xml version="1.0" encoding="us-ascii" standalone="no"?><svg xmlns="http://www.w3.org/2000/svg" xmlns:xlink="http://www.w3.org/1999/xlink" contentStyleType="text/css" height="794px" preserveAspectRatio="none" style="width:962px;height:794px;background:#FFFFFF;" version="1.1" viewBox="0 0 962 794" width="962px" zoomAndPan="magnify"><defs/><g><!--class Device--><g id="elem_Device"><rect codeLine="3" fill="#F1F1F1" height="345.1719" id="Device" rx="2.5" ry="2.5" style="stroke:#181818;stroke-width:0.5;" width="495" x="428.5" y="7"/><ellipse cx="650.25" cy="23" fill="#ADD1B2" rx="11" ry="11" style="stroke:#181818;stroke-width:1.0;"/><path d="M653.0156,18.875 Q653.1719,18.6563 653.3594,18.5469 Q653.5469,18.4375 653.7656,18.4375 Q654.1406,18.4375 654.375,18.7031 Q654.6094,18.9531 654.6094,19.5625 L654.6094,21.0156 Q654.6094,21.625 654.375,21.8906 Q654.1406,22.1563 653.7656,22.1563 Q653.4219,22.1563 653.2188,21.9531 Q653.0156,21.7656 652.9063,21.25 Q652.8594,20.8906 652.6719,20.7031 Q652.3438,20.3281 651.7344,20.1094 Q651.125,19.8906 650.5,19.8906 Q649.7344,19.8906 649.0938,20.2188 Q648.4688,20.5469 647.9688,21.2969 Q647.4844,22.0469 647.4844,23.0781 L647.4844,24.1719 Q647.4844,25.4063 648.375,26.2344 Q649.2656,27.0469 650.8594,27.0469 Q651.7969,27.0469 652.4531,26.7969 Q652.8438,26.6406 653.2656,26.2031 Q653.5313,25.9375 653.6719,25.8594 Q653.8281,25.7813 654.0313,25.7813 Q654.3594,25.7813 654.6094,26.0469 Q654.875,26.2969 654.875,26.6406 Q654.875,26.9844 654.5313,27.3906 Q654.0313,27.9688 653.2344,28.2969 Q652.1563,28.75 650.8594,28.75 Q649.3438,28.75 648.1406,28.125 Q647.1563,27.625 646.4688,26.5625 Q645.7813,25.4844 645.7813,24.2031 L645.7813,23.0469 Q645.7813,21.7188 646.3906,20.5781 Q647.0156,19.4219 648.1094,18.8125 Q649.2031,18.1875 650.4375,18.1875 Q651.1719,18.1875 651.8125,18.3594 Q652.4688,18.5156 653.0156,18.875 Z " fill="#000000"/><text fill="#000000" font-family="sans-serif" font-size="14" lengthAdjust="spacing" textLength="43" x="670.75" y="27.8535">Device</text><line style="stroke:#181818;stroke-width:0.5;" x1="429.5" x2="922.5" y1="39" y2="39"/><text fill="#000000" font-family="sans-serif" font-size="14" lengthAdjust="spacing" textLength="153" x="434.5" y="55.6738">identifier : Identifier [0..*]</text><text fill="#000000" font-family="sans-serif" font-size="14" lengthAdjust="spacing" textLength="163" x="434.5" y="71.3145">displayName : string [0..1]</text><text fill="#000000" font-family="sans-serif" font-size="14" lengthAdjust="spacing" textLength="362" x="434.5" y="86.9551">definition : CodeableReference [0..1] &#171; DeviceDefinition &#187;</text><text fill="#000000" font-family="sans-serif" font-size="14" lengthAdjust="spacing" textLength="264" x="434.5" y="102.5957">status : code [0..1] &#171; FHIRDeviceStatus! &#187;</text><text fill="#000000" font-family="sans-serif" font-size="14" lengthAdjust="spacing" textLength="483" x="434.5" y="118.2363">availabilityStatus : CodeableConcept [0..1] &#171; FHIRDeviceAvailabilityStatus+ &#187;</text><text fill="#000000" font-family="sans-serif" font-size="14" lengthAdjust="spacing" textLength="167" x="434.5" y="133.877">manufacturer : string [0..1]</text><text fill="#000000" font-family="sans-serif" font-size="14" lengthAdjust="spacing" textLength="166" x="434.5" y="149.5176">serialNumber : string [0..1]</text><text fill="#000000" font-family="sans-serif" font-size="14" lengthAdjust="spacing" textLength="170" x="434.5" y="165.1582">modelNumber : string [0..1]</text><text fill="#000000" font-family="sans-serif" font-size="14" lengthAdjust="spacing" textLength="390" x="434.5" y="180.7988">category : CodeableConcept [0..*] &#171; FHIRDeviceCategory?? &#187;</text><text fill="#000000" font-family="sans-serif" font-size="14" lengthAdjust="spacing" textLength="305" x="434.5" y="196.4395">type : CodeableConcept [0..*] &#171; DeviceType?? &#187;</text><text fill="#000000" font-family="sans-serif" font-size="14" lengthAdjust="spacing" textLength="413" x="434.5" y="212.0801">mode : CodeableConcept [0..1] &#171; FHIRDeviceOperationMode?? &#187;</text><text fill="#000000" font-family="sans-serif" font-size="14" lengthAdjust="spacing" textLength="245" x="434.5" y="227.7207">location : Reference [0..1] &#171; Location &#187;</text><text fill="#000000" font-family="sans-serif" font-size="14" lengthAdjust="spacing" textLength="80" x="434.5" y="243.3613">url : uri [0..1]</text><text fill="#000000" font-family="sans-serif" font-size="14" lengthAdjust="spacing" textLength="250" x="434.5" y="259.002">endpoint : Reference [0..*] &#171; Endpoint &#187;</text><text fill="#000000" font-family="sans-serif" font-size="14" lengthAdjust="spacing" textLength="295" x="434.5" y="274.6426">gateway : CodeableReference [0..*] &#171; Device &#187;</text><text fill="#000000" font-family="sans-serif" font-size="14" lengthAdjust="spacing" textLength="324" x="434.5" y="290.2832">safety : CodeableConcept [0..*] &#171; DeviceSafety?? &#187;</text><text fill="#000000" font-family="sans-serif" font-size="14" lengthAdjust="spacing" textLength="226" x="434.5" y="305.9238">parent : Reference [0..1] &#171; Device &#187;</text><text fill="#000000" font-family="sans-serif" font-size="14" lengthAdjust="spacing" textLength="12" x="434.5" y="321.5645">...</text><text fill="#000000" font-family="sans-serif" font-size="14" lengthAdjust="spacing" textLength="201" x="434.5" y="337.2051">alertSignal : AlertDetection [0..*]</text><line style="stroke:#181818;stroke-width:0.5;" x1="429.5" x2="922.5" y1="344.1719" y2="344.1719"/></g><!--class Flag--><g id="elem_Flag"><rect codeLine="26" fill="#F1F1F1" height="173.125" id="Flag" rx="2.5" ry="2.5" style="stroke:#181818;stroke-width:0.5;" width="273" x="140.5" y="443.5"/><ellipse cx="258.75" cy="459.5" fill="#ADD1B2" rx="11" ry="11" style="stroke:#181818;stroke-width:1.0;"/><path d="M261.5156,455.375 Q261.6719,455.1563 261.8594,455.0469 Q262.0469,454.9375 262.2656,454.9375 Q262.6406,454.9375 262.875,455.2031 Q263.1094,455.4531 263.1094,456.0625 L263.1094,457.5156 Q263.1094,458.125 262.875,458.3906 Q262.6406,458.6563 262.2656,458.6563 Q261.9219,458.6563 261.7188,458.4531 Q261.5156,458.2656 261.4063,457.75 Q261.3594,457.3906 261.1719,457.2031 Q260.8438,456.8281 260.2344,456.6094 Q259.625,456.3906 259,456.3906 Q258.2344,456.3906 257.5938,456.7188 Q256.9688,457.0469 256.4688,457.7969 Q255.9844,458.5469 255.9844,459.5781 L255.9844,460.6719 Q255.9844,461.9063 256.875,462.7344 Q257.7656,463.5469 259.3594,463.5469 Q260.2969,463.5469 260.9531,463.2969 Q261.3438,463.1406 261.7656,462.7031 Q262.0313,462.4375 262.1719,462.3594 Q262.3281,462.2813 262.5313,462.2813 Q262.8594,462.2813 263.1094,462.5469 Q263.375,462.7969 263.375,463.1406 Q263.375,463.4844 263.0313,463.8906 Q262.5313,464.4688 261.7344,464.7969 Q260.6563,465.25 259.3594,465.25 Q257.8438,465.25 256.6406,464.625 Q255.6563,464.125 254.9688,463.0625 Q254.2813,461.9844 254.2813,460.7031 L254.2813,459.5469 Q254.2813,458.2188 254.8906,457.0781 Q255.5156,455.9219 256.6094,455.3125 Q257.7031,454.6875 258.9375,454.6875 Q259.6719,454.6875 260.3125,454.8594 Q260.9688,455.0156 261.5156,455.375 Z " fill="#000000"/><text fill="#000000" font-family="sans-serif" font-size="14" lengthAdjust="spacing" textLength="28" x="279.25" y="464.3535">Flag</text><line style="stroke:#181818;stroke-width:0.5;" x1="141.5" x2="412.5" y1="475.5" y2="475.5"/><text fill="#000000" font-family="sans-serif" font-size="14" lengthAdjust="spacing" textLength="153" x="146.5" y="492.1738">identifier : Identifier [0..*]</text><text fill="#000000" font-family="sans-serif" font-size="14" lengthAdjust="spacing" textLength="117" x="146.5" y="507.8145">status : code [1..1]</text><text fill="#000000" font-family="sans-serif" font-size="14" lengthAdjust="spacing" textLength="214" x="146.5" y="523.4551">category : CodeableConcept [0..*]</text><text fill="#000000" font-family="sans-serif" font-size="14" lengthAdjust="spacing" textLength="193" x="146.5" y="539.0957">code : CodeableConcept [1..1]</text><text fill="#000000" font-family="sans-serif" font-size="14" lengthAdjust="spacing" textLength="159" x="146.5" y="554.7363">subject : Reference [1..1]</text><text fill="#000000" font-family="sans-serif" font-size="14" lengthAdjust="spacing" textLength="129" x="146.5" y="570.377">period : Period [0..1]</text><line style="stroke:#181818;stroke-width:0.5;" x1="141.5" x2="412.5" y1="577.3438" y2="577.3438"/><text fill="#000000" font-family="sans-serif" font-size="14" lengthAdjust="spacing" textLength="261" x="146.5" y="594.0176">encounter : Reference( Encounter ) [0..1]</text><text fill="#000000" font-family="sans-serif" font-size="14" lengthAdjust="spacing" textLength="216" x="146.5" y="609.6582">author : Reference( Device ) [0..1]</text></g><!--class DeviceMetric--><g id="elem_DeviceMetric"><rect codeLine="38" fill="#F1F1F1" height="204.4063" id="DeviceMetric" rx="2.5" ry="2.5" style="stroke:#181818;stroke-width:0.5;" width="455" x="448.5" y="428"/><ellipse cx="631.25" cy="444" fill="#ADD1B2" rx="11" ry="11" style="stroke:#181818;stroke-width:1.0;"/><path d="M634.0156,439.875 Q634.1719,439.6563 634.3594,439.5469 Q634.5469,439.4375 634.7656,439.4375 Q635.1406,439.4375 635.375,439.7031 Q635.6094,439.9531 635.6094,440.5625 L635.6094,442.0156 Q635.6094,442.625 635.375,442.8906 Q635.1406,443.1563 634.7656,443.1563 Q634.4219,443.1563 634.2188,442.9531 Q634.0156,442.7656 633.9063,442.25 Q633.8594,441.8906 633.6719,441.7031 Q633.3438,441.3281 632.7344,441.1094 Q632.125,440.8906 631.5,440.8906 Q630.7344,440.8906 630.0938,441.2188 Q629.4688,441.5469 628.9688,442.2969 Q628.4844,443.0469 628.4844,444.0781 L628.4844,445.1719 Q628.4844,446.4063 629.375,447.2344 Q630.2656,448.0469 631.8594,448.0469 Q632.7969,448.0469 633.4531,447.7969 Q633.8438,447.6406 634.2656,447.2031 Q634.5313,446.9375 634.6719,446.8594 Q634.8281,446.7813 635.0313,446.7813 Q635.3594,446.7813 635.6094,447.0469 Q635.875,447.2969 635.875,447.6406 Q635.875,447.9844 635.5313,448.3906 Q635.0313,448.9688 634.2344,449.2969 Q633.1563,449.75 631.8594,449.75 Q630.3438,449.75 629.1406,449.125 Q628.1563,448.625 627.4688,447.5625 Q626.7813,446.4844 626.7813,445.2031 L626.7813,444.0469 Q626.7813,442.7188 627.3906,441.5781 Q628.0156,440.4219 629.1094,439.8125 Q630.2031,439.1875 631.4375,439.1875 Q632.1719,439.1875 632.8125,439.3594 Q633.4688,439.5156 634.0156,439.875 Z " fill="#000000"/><text fill="#000000" font-family="sans-serif" font-size="14" lengthAdjust="spacing" textLength="81" x="651.75" y="448.8535">DeviceMetric</text><line style="stroke:#181818;stroke-width:0.5;" x1="449.5" x2="902.5" y1="460" y2="460"/><text fill="#000000" font-family="sans-serif" font-size="14" lengthAdjust="spacing" textLength="150" x="454.5" y="476.6738">dentifier : Identifier [0..*]</text><text fill="#000000" font-family="sans-serif" font-size="14" lengthAdjust="spacing" textLength="443" x="454.5" y="492.3145">type : CodeableConcept [1..1] &#171; DeviceMetricAndComponentTypes? &#187;</text><text fill="#000000" font-family="sans-serif" font-size="14" lengthAdjust="spacing" textLength="301" x="454.5" y="507.9551">unit : CodeableConcept [0..1] &#171; UCUMCodes? &#187;</text><text fill="#000000" font-family="sans-serif" font-size="14" lengthAdjust="spacing" textLength="226" x="454.5" y="523.5957">device : Reference [1..1] &#171; Device &#187;</text><text fill="#000000" font-family="sans-serif" font-size="14" lengthAdjust="spacing" textLength="418" x="454.5" y="539.2363">operationalStatus : code [0..1] &#171; DeviceMetricOperationalStatus! &#187;</text><text fill="#000000" font-family="sans-serif" font-size="14" lengthAdjust="spacing" textLength="264" x="454.5" y="554.877">color : code [0..1] &#171; ColorCodesOrRGB! &#187;</text><text fill="#000000" font-family="sans-serif" font-size="14" lengthAdjust="spacing" textLength="306" x="454.5" y="570.5176">category : code [1..1] &#171; DeviceMetricCategory! &#187;</text><text fill="#000000" font-family="sans-serif" font-size="14" lengthAdjust="spacing" textLength="255" x="454.5" y="586.1582">measurementFrequency : Quantity [0..1]</text><text fill="#000000" font-family="sans-serif" font-size="14" lengthAdjust="spacing" textLength="12" x="454.5" y="601.7988">...</text><text fill="#000000" font-family="sans-serif" font-size="14" lengthAdjust="spacing" textLength="201" x="454.5" y="617.4395">alertSignal : AlertDetection [0..*]</text><line style="stroke:#181818;stroke-width:0.5;" x1="449.5" x2="902.5" y1="624.4063" y2="624.4063"/></g><!--class AlertDetection--><g id="elem_AlertDetection"><rect codeLine="71" fill="#F1F1F1" height="79.2813" id="AlertDetection" rx="2.5" ry="2.5" style="stroke:#181818;stroke-width:0.5;" width="121" x="816.5" y="708"/><ellipse cx="831.5" cy="724" fill="#ADD1B2" rx="11" ry="11" style="stroke:#181818;stroke-width:1.0;"/><path d="M834.2656,719.875 Q834.4219,719.6563 834.6094,719.5469 Q834.7969,719.4375 835.0156,719.4375 Q835.3906,719.4375 835.625,719.7031 Q835.8594,719.9531 835.8594,720.5625 L835.8594,722.0156 Q835.8594,722.625 835.625,722.8906 Q835.3906,723.1563 835.0156,723.1563 Q834.6719,723.1563 834.4688,722.9531 Q834.2656,722.7656 834.1563,722.25 Q834.1094,721.8906 833.9219,721.7031 Q833.5938,721.3281 832.9844,721.1094 Q832.375,720.8906 831.75,720.8906 Q830.9844,720.8906 830.3438,721.2188 Q829.7188,721.5469 829.2188,722.2969 Q828.7344,723.0469 828.7344,724.0781 L828.7344,725.1719 Q828.7344,726.4063 829.625,727.2344 Q830.5156,728.0469 832.1094,728.0469 Q833.0469,728.0469 833.7031,727.7969 Q834.0938,727.6406 834.5156,727.2031 Q834.7813,726.9375 834.9219,726.8594 Q835.0781,726.7813 835.2813,726.7813 Q835.6094,726.7813 835.8594,727.0469 Q836.125,727.2969 836.125,727.6406 Q836.125,727.9844 835.7813,728.3906 Q835.2813,728.9688 834.4844,729.2969 Q833.4063,729.75 832.1094,729.75 Q830.5938,729.75 829.3906,729.125 Q828.4063,728.625 827.7188,727.5625 Q827.0313,726.4844 827.0313,725.2031 L827.0313,724.0469 Q827.0313,722.7188 827.6406,721.5781 Q828.2656,720.4219 829.3594,719.8125 Q830.4531,719.1875 831.6875,719.1875 Q832.4219,719.1875 833.0625,719.3594 Q833.7188,719.5156 834.2656,719.875 Z " fill="#000000"/><text fill="#000000" font-family="sans-serif" font-size="14" lengthAdjust="spacing" textLength="89" x="845.5" y="728.8535">AlertDetection</text><line style="stroke:#181818;stroke-width:0.5;" x1="817.5" x2="936.5" y1="740" y2="740"/><text fill="#000000" font-family="sans-serif" font-size="14" lengthAdjust="spacing" textLength="31" x="822.5" y="756.6738">code</text><text fill="#000000" font-family="sans-serif" font-size="14" lengthAdjust="spacing" textLength="93" x="822.5" y="772.3145">activationState</text><line style="stroke:#181818;stroke-width:0.5;" x1="817.5" x2="936.5" y1="779.2813" y2="779.2813"/></g><!--class Patient--><g id="elem_Patient"><rect codeLine="77" fill="#F1F1F1" height="63.6406" id="Patient" rx="2.5" ry="2.5" style="stroke:#181818;stroke-width:0.5;" width="76" x="239" y="715.5"/><ellipse cx="254" cy="731.5" fill="#ADD1B2" rx="11" ry="11" style="stroke:#181818;stroke-width:1.0;"/><path d="M256.7656,727.375 Q256.9219,727.1563 257.1094,727.0469 Q257.2969,726.9375 257.5156,726.9375 Q257.8906,726.9375 258.125,727.2031 Q258.3594,727.4531 258.3594,728.0625 L258.3594,729.5156 Q258.3594,730.125 258.125,730.3906 Q257.8906,730.6563 257.5156,730.6563 Q257.1719,730.6563 256.9688,730.4531 Q256.7656,730.2656 256.6563,729.75 Q256.6094,729.3906 256.4219,729.2031 Q256.0938,728.8281 255.4844,728.6094 Q254.875,728.3906 254.25,728.3906 Q253.4844,728.3906 252.8438,728.7188 Q252.2188,729.0469 251.7188,729.7969 Q251.2344,730.5469 251.2344,731.5781 L251.2344,732.6719 Q251.2344,733.9063 252.125,734.7344 Q253.0156,735.5469 254.6094,735.5469 Q255.5469,735.5469 256.2031,735.2969 Q256.5938,735.1406 257.0156,734.7031 Q257.2813,734.4375 257.4219,734.3594 Q257.5781,734.2813 257.7813,734.2813 Q258.1094,734.2813 258.3594,734.5469 Q258.625,734.7969 258.625,735.1406 Q258.625,735.4844 258.2813,735.8906 Q257.7813,736.4688 256.9844,736.7969 Q255.9063,737.25 254.6094,737.25 Q253.0938,737.25 251.8906,736.625 Q250.9063,736.125 250.2188,735.0625 Q249.5313,733.9844 249.5313,732.7031 L249.5313,731.5469 Q249.5313,730.2188 250.1406,729.0781 Q250.7656,727.9219 251.8594,727.3125 Q252.9531,726.6875 254.1875,726.6875 Q254.9219,726.6875 255.5625,726.8594 Q256.2188,727.0156 256.7656,727.375 Z " fill="#000000"/><text fill="#000000" font-family="sans-serif" font-size="14" lengthAdjust="spacing" textLength="44" x="268" y="736.3535">Patient</text><line style="stroke:#181818;stroke-width:0.5;" x1="240" x2="314" y1="747.5" y2="747.5"/><text fill="#000000" font-family="sans-serif" font-size="14" lengthAdjust="spacing" textLength="12" x="245" y="764.1738">...</text><line style="stroke:#181818;stroke-width:0.5;" x1="240" x2="314" y1="771.1406" y2="771.1406"/></g><!--class Location--><g id="elem_Location"><rect codeLine="82" fill="#F1F1F1" height="63.6406" id="Location" rx="2.5" ry="2.5" style="stroke:#181818;stroke-width:0.5;" width="86" x="13" y="147.5"/><ellipse cx="28" cy="163.5" fill="#ADD1B2" rx="11" ry="11" style="stroke:#181818;stroke-width:1.0;"/><path d="M30.7656,159.375 Q30.9219,159.1563 31.1094,159.0469 Q31.2969,158.9375 31.5156,158.9375 Q31.8906,158.9375 32.125,159.2031 Q32.3594,159.4531 32.3594,160.0625 L32.3594,161.5156 Q32.3594,162.125 32.125,162.3906 Q31.8906,162.6563 31.5156,162.6563 Q31.1719,162.6563 30.9688,162.4531 Q30.7656,162.2656 30.6563,161.75 Q30.6094,161.3906 30.4219,161.2031 Q30.0938,160.8281 29.4844,160.6094 Q28.875,160.3906 28.25,160.3906 Q27.4844,160.3906 26.8438,160.7188 Q26.2188,161.0469 25.7188,161.7969 Q25.2344,162.5469 25.2344,163.5781 L25.2344,164.6719 Q25.2344,165.9063 26.125,166.7344 Q27.0156,167.5469 28.6094,167.5469 Q29.5469,167.5469 30.2031,167.2969 Q30.5938,167.1406 31.0156,166.7031 Q31.2813,166.4375 31.4219,166.3594 Q31.5781,166.2813 31.7813,166.2813 Q32.1094,166.2813 32.3594,166.5469 Q32.625,166.7969 32.625,167.1406 Q32.625,167.4844 32.2813,167.8906 Q31.7813,168.4688 30.9844,168.7969 Q29.9063,169.25 28.6094,169.25 Q27.0938,169.25 25.8906,168.625 Q24.9063,168.125 24.2188,167.0625 Q23.5313,165.9844 23.5313,164.7031 L23.5313,163.5469 Q23.5313,162.2188 24.1406,161.0781 Q24.7656,159.9219 25.8594,159.3125 Q26.9531,158.6875 28.1875,158.6875 Q28.9219,158.6875 29.5625,158.8594 Q30.2188,159.0156 30.7656,159.375 Z " fill="#000000"/><text fill="#000000" font-family="sans-serif" font-size="14" lengthAdjust="spacing" textLength="54" x="42" y="168.3535">Location</text><line style="stroke:#181818;stroke-width:0.5;" x1="14" x2="98" y1="179.5" y2="179.5"/><text fill="#000000" font-family="sans-serif" font-size="14" lengthAdjust="spacing" textLength="12" x="19" y="196.1738">...</text><line style="stroke:#181818;stroke-width:0.5;" x1="14" x2="98" y1="203.1406" y2="203.1406"/></g><!--class Observation--><g id="elem_Observation"><rect codeLine="87" fill="#F1F1F1" height="63.6406" id="Observation" rx="2.5" ry="2.5" style="stroke:#181818;stroke-width:0.5;" width="109" x="134.5" y="147.5"/><ellipse cx="149.5" cy="163.5" fill="#ADD1B2" rx="11" ry="11" style="stroke:#181818;stroke-width:1.0;"/><path d="M152.2656,159.375 Q152.4219,159.1563 152.6094,159.0469 Q152.7969,158.9375 153.0156,158.9375 Q153.3906,158.9375 153.625,159.2031 Q153.8594,159.4531 153.8594,160.0625 L153.8594,161.5156 Q153.8594,162.125 153.625,162.3906 Q153.3906,162.6563 153.0156,162.6563 Q152.6719,162.6563 152.4688,162.4531 Q152.2656,162.2656 152.1563,161.75 Q152.1094,161.3906 151.9219,161.2031 Q151.5938,160.8281 150.9844,160.6094 Q150.375,160.3906 149.75,160.3906 Q148.9844,160.3906 148.3438,160.7188 Q147.7188,161.0469 147.2188,161.7969 Q146.7344,162.5469 146.7344,163.5781 L146.7344,164.6719 Q146.7344,165.9063 147.625,166.7344 Q148.5156,167.5469 150.1094,167.5469 Q151.0469,167.5469 151.7031,167.2969 Q152.0938,167.1406 152.5156,166.7031 Q152.7813,166.4375 152.9219,166.3594 Q153.0781,166.2813 153.2813,166.2813 Q153.6094,166.2813 153.8594,166.5469 Q154.125,166.7969 154.125,167.1406 Q154.125,167.4844 153.7813,167.8906 Q153.2813,168.4688 152.4844,168.7969 Q151.4063,169.25 150.1094,169.25 Q148.5938,169.25 147.3906,168.625 Q146.4063,168.125 145.7188,167.0625 Q145.0313,165.9844 145.0313,164.7031 L145.0313,163.5469 Q145.0313,162.2188 145.6406,161.0781 Q146.2656,159.9219 147.3594,159.3125 Q148.4531,158.6875 149.6875,158.6875 Q150.4219,158.6875 151.0625,158.8594 Q151.7188,159.0156 152.2656,159.375 Z " fill="#000000"/><text fill="#000000" font-family="sans-serif" font-size="14" lengthAdjust="spacing" textLength="77" x="163.5" y="168.3535">Observation</text><line style="stroke:#181818;stroke-width:0.5;" x1="135.5" x2="242.5" y1="179.5" y2="179.5"/><text fill="#000000" font-family="sans-serif" font-size="14" lengthAdjust="spacing" textLength="12" x="140.5" y="196.1738">...</text><line style="stroke:#181818;stroke-width:0.5;" x1="135.5" x2="242.5" y1="203.1406" y2="203.1406"/></g><!--class limitRange--><g id="elem_limitRange"><rect codeLine="93" fill="#F1F1F1" height="79.2813" id="limitRange" rx="2.5" ry="2.5" style="stroke:#181818;stroke-width:0.5;" width="98" x="7" y="490.5"/><ellipse cx="22" cy="506.5" fill="#ADD1B2" rx="11" ry="11" style="stroke:#181818;stroke-width:1.0;"/><path d="M24.7656,502.375 Q24.9219,502.1563 25.1094,502.0469 Q25.2969,501.9375 25.5156,501.9375 Q25.8906,501.9375 26.125,502.2031 Q26.3594,502.4531 26.3594,503.0625 L26.3594,504.5156 Q26.3594,505.125 26.125,505.3906 Q25.8906,505.6563 25.5156,505.6563 Q25.1719,505.6563 24.9688,505.4531 Q24.7656,505.2656 24.6563,504.75 Q24.6094,504.3906 24.4219,504.2031 Q24.0938,503.8281 23.4844,503.6094 Q22.875,503.3906 22.25,503.3906 Q21.4844,503.3906 20.8438,503.7188 Q20.2188,504.0469 19.7188,504.7969 Q19.2344,505.5469 19.2344,506.5781 L19.2344,507.6719 Q19.2344,508.9063 20.125,509.7344 Q21.0156,510.5469 22.6094,510.5469 Q23.5469,510.5469 24.2031,510.2969 Q24.5938,510.1406 25.0156,509.7031 Q25.2813,509.4375 25.4219,509.3594 Q25.5781,509.2813 25.7813,509.2813 Q26.1094,509.2813 26.3594,509.5469 Q26.625,509.7969 26.625,510.1406 Q26.625,510.4844 26.2813,510.8906 Q25.7813,511.4688 24.9844,511.7969 Q23.9063,512.25 22.6094,512.25 Q21.0938,512.25 19.8906,511.625 Q18.9063,511.125 18.2188,510.0625 Q17.5313,508.9844 17.5313,507.7031 L17.5313,506.5469 Q17.5313,505.2188 18.1406,504.0781 Q18.7656,502.9219 19.8594,502.3125 Q20.9531,501.6875 22.1875,501.6875 Q22.9219,501.6875 23.5625,501.8594 Q24.2188,502.0156 24.7656,502.375 Z " fill="#000000"/><text fill="#000000" font-family="sans-serif" font-size="14" lengthAdjust="spacing" textLength="66" x="36" y="511.3535">limitRange</text><line style="stroke:#181818;stroke-width:0.5;" x1="8" x2="104" y1="522.5" y2="522.5"/><text fill="#000000" font-family="sans-serif" font-size="14" lengthAdjust="spacing" textLength="20" x="13" y="539.1738">low</text><text fill="#000000" font-family="sans-serif" font-size="14" lengthAdjust="spacing" textLength="27" x="13" y="554.8145">high</text><line style="stroke:#181818;stroke-width:0.5;" x1="8" x2="104" y1="561.7813" y2="561.7813"/></g><!--reverse link Device to Flag--><g id="link_Device_Flag"><path codeLine="99" d="M475.59,355.54 C440.57,386.13 405.59,416.68 374.96,443.44 " fill="none" id="Device-backto-Flag" style="stroke:#181818;stroke-width:1.0;"/><polygon fill="#181818" points="479.42,352.2,470.012,355.1137,475.6562,355.4915,475.2784,361.1357,479.42,352.2" style="stroke:#181818;stroke-width:1.0;"/><text fill="#000000" font-family="sans-serif" font-size="13" lengthAdjust="spacing" textLength="36" x="442" y="394.7686">author</text></g><!--link Flag to Patient--><g id="link_Flag_Patient"><path codeLine="100" d="M277,616.79 C277,649.23 277,684.43 277,709.97 " fill="none" id="Flag-to-Patient" style="stroke:#181818;stroke-width:1.0;"/><polygon fill="#181818" points="277,715.27,281,706.27,277,710.27,273,706.27,277,715.27" style="stroke:#181818;stroke-width:1.0;"/><text fill="#000000" font-family="sans-serif" font-size="13" lengthAdjust="spacing" textLength="42" x="278" y="674.7686">subject</text></g><!--link Device to DeviceMetric--><g id="link_Device_DeviceMetric"><path codeLine="101" d="M676,352.2 C676,378.14 676,404.16 676,427.95 " fill="none" id="Device-DeviceMetric" style="stroke:#181818;stroke-width:1.0;"/></g><!--reverse link Device to AlertDetection--><g id="link_Device_AlertDetection"><path codeLine="102" d="M884.34,362.67 C898.96,383.28 911.6,405.14 921,428 C955.48,511.85 937.54,542.85 921,632 C916.14,658.17 905.54,686.09 895.96,707.8 " fill="none" id="Device-backto-AlertDetection" style="stroke:#181818;stroke-width:1.0;stroke-dasharray:7.0,7.0;"/><polygon fill="#181818" points="876.53,352,876.8509,359.204,883.6241,361.6785,883.3032,354.4746,876.53,352" style="stroke:#181818;stroke-width:1.0;"/></g><!--reverse link DeviceMetric to AlertDetection--><g id="link_DeviceMetric_AlertDetection"><path codeLine="103" d="M779.45,641.91 C801.53,665.58 823.42,689.06 840.85,707.75 " fill="none" id="DeviceMetric-backto-AlertDetection" style="stroke:#181818;stroke-width:1.0;stroke-dasharray:7.0,7.0;"/><polygon fill="#181818" points="770.32,632.12,771.4859,639.2362,778.5031,640.8971,777.3372,633.7808,770.32,632.12" style="stroke:#181818;stroke-width:1.0;"/></g><!--SRC=[bLNBSjCm5DtxAyAgK2OksJ8CdU0Iw4pJb8Ik61OtyeqhHfQCBAUJOVWYFe5TluohLn8xSLkoiULpZdGVHpTCG5qFBd3D6IQ_4fwZD7p5KG_U3YvtYszlqlJqUvBpkXAmkOOI2Q-Dvh9ms8WmN7793LUIe4pb24k1SroXHiami0OFVy9X5plwmz-aDc2QceICX7lSoUVBkUSl7EE59SCQk80b5zni5b4OJymKdLQPetkC3uIlxNubo6O5p3JQfTrEgqRDGLmtvV88MDAXVHW3WuNIcvxOJZknPO5-Vcv3CfiA7nLwqLUYUO6Dv9bLc5MemHP-IcIl5ef1wDonZbr5cAYD5iHgD8zveimhnQKvqFf0FqQOj0NbU0-RNd_if-PS0IiqcsVKOU68FfSAQ4FJaybkxpHD4n2epO8N4cnEOxkwG8FCvHei_pj9cBiZ4m75qpUaO-JHywoGi9xsUNtTB7zGLEsSF4Izv2edvCQ_R9l2L2ED2tAhUKdDY9zVHIOqvavrQA5AMyws1XwO8XcTKIqUBqMVXqVjPlZTnZBFL5afIRjOLzUkbmrDY4TTVPlTJYtgwRcF-x1CxTQhU050B7hcpdveioxT3I6cX2jRHvZPpowYcPv_-k2fk_RlkQ9xJ1m0Jb8Yr3IEIgh6HEFFXdAnyYyDK97fIeJ6_8U9pqvQFNIyhftvKtOEautUauhifYaKr-ReK89axeQwj-DkFLxMjXzpoal9q2XwQBx6VA9LIMc0BgzWYI9S-yn6Iv6Vd2NHVktaAFe1_LmqzeKcE5-xHjaseKrwu7Ktz9Ko2m9RjAsZusWxXiqePhq-0WTSy9ARESW20opKlNlUyUBEyeBbtWs7RdfG6VrjIzngE7mV8xD_7g62GKEIrcKBdq_Jj5k5VTenFFa7]--></g></svg>